<svg xmlns="http://www.w3.org/2000/svg" viewBox="0 0 350 316" width="350" height="316" role="img" aria-label="Trois trajectoires de valeur apportée dans le temps. La trajectoire retenue monte par paliers, chaque étape rapporte. Livrer vite monte vite puis s’aplatit sous la dette. Construire proprement reste à plat longtemps."><title>Trois trajectoires de valeur apportée dans le temps. La trajectoire retenue monte par paliers, chaque étape rapporte. Livrer vite monte vite puis s’aplatit sous la dette. Construire proprement reste à plat longtemps.</title><style>.fe{fill:#2A1F1A}.fs{fill:#5E7488}</style><rect width="350" height="316" fill="#FEFAF2"/><path d="M8,24V284H216" fill="none" stroke="#5E7488" stroke-width="1.5" stroke-linecap="round" stroke-linejoin="round" /><path transform="translate(8 22) rotate(-90)" d="M-5.5,-5L0,0L-5.5,5" fill="none" stroke="#5E7488" stroke-width="1.5" stroke-linecap="round" stroke-linejoin="round"/><path transform="translate(218 284) rotate(0)" d="M-5.5,-5L0,0L-5.5,5" fill="none" stroke="#5E7488" stroke-width="1.5" stroke-linecap="round" stroke-linejoin="round"/><g class="fe"><path transform="translate(20.00 22) scale(0.015 -0.015)" d="M237,0L10,668L163,668L321,164L480,668L634,668L406,0L237,0Z"/><path transform="translate(29.66 22) scale(0.015 -0.015)" d="M196,-12Q149,-12 110,5.5Q71,23 48,55.5Q25,88 25,133Q25,192 66,228Q107,264 183,283.5Q259,303 360,311L360,325Q360,370 336,391.5Q312,413 267,413Q233,413 208.5,397Q184,381 176,350L57,392Q80,443 136.5,476Q193,509 273,509Q380,509 436.5,461.5Q493,414 493,303L493,193Q493,159 495,122.5Q497,86 501,54Q505,22 510,0L381,0L362,62Q336,23 293.5,5.5Q251,-12 196,-12ZM246,85Q278,85 304,96Q330,107 345,133Q360,159 360,204L360,225Q269,218 219,200Q169,182 169,142Q169,116 190.5,100.5Q212,85 246,85Z"/><path transform="translate(37.94 22) scale(0.015 -0.015)" d="M209,0Q151,0 117,10.5Q83,21 68,50.5Q53,80 53,136L53,708L193,708L193,170Q193,136 206,125.5Q219,115 257,115L298,115L298,0L209,0Z"/><path transform="translate(42.71 22) scale(0.015 -0.015)" d="M296,-12Q216,-12 156,20Q96,52 63,111Q30,170 30,250Q30,329 65.5,387Q101,445 160.5,477Q220,509 291,509Q351,509 399.5,486.5Q448,464 481,424Q514,384 529.5,329.5Q545,275 540,211L167,211Q173,180 185.5,158.5Q198,137 215,123.5Q232,110 252.5,104Q273,98 293,98Q329,98 355,109Q381,120 396,137L509,97Q473,42 416,15Q359,-12 296,-12ZM166,298L409,298Q408,331 392.5,354.5Q377,378 352,391Q327,404 294,404Q265,404 238,393.5Q211,383 192.5,360.5Q174,338 166,298Z"/><path transform="translate(51.16 22) scale(0.015 -0.015)" d="M224,-12Q160,-12 123,12.5Q86,37 70.5,83.5Q55,130 55,195L55,496L194,496L194,230Q194,195 198,164Q202,133 219.5,115.5Q237,98 275,98Q325,98 347.5,130Q370,162 370,233L370,496L510,496L510,0L391,0L370,70Q348,34 315,11Q282,-12 224,-12Z"/><path transform="translate(59.66 22) scale(0.015 -0.015)" d="M57,0L57,496L165,496L192,405Q209,443 232,466.5Q255,490 286,500Q317,510 356,509L356,369Q301,375 266,363Q231,351 213.5,321.5Q196,292 196,243L196,0L57,0Z"/><path transform="translate(69.98 22) scale(0.015 -0.015)" d="M196,-12Q149,-12 110,5.5Q71,23 48,55.5Q25,88 25,133Q25,192 66,228Q107,264 183,283.5Q259,303 360,311L360,325Q360,370 336,391.5Q312,413 267,413Q233,413 208.5,397Q184,381 176,350L57,392Q80,443 136.5,476Q193,509 273,509Q380,509 436.5,461.5Q493,414 493,303L493,193Q493,159 495,122.5Q497,86 501,54Q505,22 510,0L381,0L362,62Q336,23 293.5,5.5Q251,-12 196,-12ZM246,85Q278,85 304,96Q330,107 345,133Q360,159 360,204L360,225Q269,218 219,200Q169,182 169,142Q169,116 190.5,100.5Q212,85 246,85Z"/><path transform="translate(78.26 22) scale(0.015 -0.015)" d="M57,-162L57,496L175,496L196,426Q212,454 237,472Q262,490 291,499.5Q320,509 349,509Q411,509 460.5,477Q510,445 538.5,387Q567,329 567,248Q567,167 538.5,108.5Q510,50 460.5,19Q411,-12 349,-12Q320,-12 291,-2.5Q262,7 237,26Q212,45 196,72L196,-162L57,-162ZM306,97Q353,97 387,135.5Q421,174 421,248Q421,320 387,360Q353,400 306,400Q257,400 223.5,364.5Q190,329 190,250Q190,172 223.5,134.5Q257,97 306,97Z"/><path transform="translate(87.20 22) scale(0.015 -0.015)" d="M57,-162L57,496L175,496L196,426Q212,454 237,472Q262,490 291,499.5Q320,509 349,509Q411,509 460.5,477Q510,445 538.5,387Q567,329 567,248Q567,167 538.5,108.5Q510,50 460.5,19Q411,-12 349,-12Q320,-12 291,-2.5Q262,7 237,26Q212,45 196,72L196,-162L57,-162ZM306,97Q353,97 387,135.5Q421,174 421,248Q421,320 387,360Q353,400 306,400Q257,400 223.5,364.5Q190,329 190,250Q190,172 223.5,134.5Q257,97 306,97Z"/><path transform="translate(96.14 22) scale(0.015 -0.015)" d="M288,-12Q237,-12 191,3.5Q145,19 108.5,51Q72,83 51,132Q30,181 30,248Q30,316 51,365Q72,414 108.5,446Q145,478 191,493.5Q237,509 288,509Q338,509 384,493.5Q430,478 466.5,446Q503,414 524.5,365Q546,316 546,248Q546,181 524.5,132Q503,83 466.5,51Q430,19 384,3.5Q338,-12 288,-12ZM288,98Q319,98 345.5,112.5Q372,127 387.5,160Q403,193 403,248Q403,304 387.5,337Q372,370 345.5,384.5Q319,399 288,399Q256,399 230,384.5Q204,370 188,337Q172,304 172,248Q172,193 188,160Q204,127 230,112.5Q256,98 288,98Z"/><path transform="translate(104.78 22) scale(0.015 -0.015)" d="M57,0L57,496L165,496L192,405Q209,443 232,466.5Q255,490 286,500Q317,510 356,509L356,369Q301,375 266,363Q231,351 213.5,321.5Q196,292 196,243L196,0L57,0Z"/><path transform="translate(110.42 22) scale(0.015 -0.015)" d="M249,0Q191,0 157,10.5Q123,21 108.5,50.5Q94,80 94,137L94,389L12,389L12,496L94,496L94,620L233,620L233,496L341,496L341,389L233,389L233,172Q233,136 246,125.5Q259,115 295,115L341,115L341,0L249,0Z"/><path transform="translate(116.06 22) scale(0.015 -0.015)" d="M296,-12Q216,-12 156,20Q96,52 63,111Q30,170 30,250Q30,329 65.5,387Q101,445 160.5,477Q220,509 291,509Q351,509 399.5,486.5Q448,464 481,424Q514,384 529.5,329.5Q545,275 540,211L167,211Q173,180 185.5,158.5Q198,137 215,123.5Q232,110 252.5,104Q273,98 293,98Q329,98 355,109Q381,120 396,137L509,97Q473,42 416,15Q359,-12 296,-12ZM166,298L409,298Q408,331 392.5,354.5Q377,378 352,391Q327,404 294,404Q265,404 238,393.5Q211,383 192.5,360.5Q174,338 166,298ZM247,573L342,690Q356,707 367.5,714.5Q379,722 396,722Q420,722 433.5,707.5Q447,693 447,672Q447,659 439.5,646Q432,633 409,616L353,573L247,573Z"/><path transform="translate(124.50 22) scale(0.015 -0.015)" d="M296,-12Q216,-12 156,20Q96,52 63,111Q30,170 30,250Q30,329 65.5,387Q101,445 160.5,477Q220,509 291,509Q351,509 399.5,486.5Q448,464 481,424Q514,384 529.5,329.5Q545,275 540,211L167,211Q173,180 185.5,158.5Q198,137 215,123.5Q232,110 252.5,104Q273,98 293,98Q329,98 355,109Q381,120 396,137L509,97Q473,42 416,15Q359,-12 296,-12ZM166,298L409,298Q408,331 392.5,354.5Q377,378 352,391Q327,404 294,404Q265,404 238,393.5Q211,383 192.5,360.5Q174,338 166,298Z"/></g><g class="fe"><path transform="translate(173.33 308) scale(0.015 -0.015)" d="M232,0L232,587L10,587L10,668L548,668L548,587L326,587L326,0L232,0Z"/><path transform="translate(181.70 308) scale(0.015 -0.015)" d="M279,-12Q201,-12 147,22.5Q93,57 64.5,115.5Q36,174 36,247Q36,326 68,383.5Q100,441 154.5,472.5Q209,504 277,504Q336,504 381,480.5Q426,457 455.5,417.5Q485,378 498.5,328Q512,278 508,225L124,225Q128,176 144.5,144Q161,112 184,94Q207,76 232.5,69Q258,62 279,62Q321,62 349.5,75.5Q378,89 395,111L476,87Q449,44 399,16Q349,-12 279,-12ZM125,292L419,292Q419,327 401.5,359Q384,391 352.5,411.5Q321,432 277,432Q244,432 211.5,419Q179,406 155.5,375.5Q132,345 125,292Z"/><path transform="translate(189.77 308) scale(0.015 -0.015)" d="M72,0L72,496L134,496L156,421Q170,445 190.5,463.5Q211,482 239.5,493Q268,504 305,504Q362,504 397,481Q432,458 448,417Q478,463 520.5,483.5Q563,504 615,504Q673,504 708,480Q743,456 759,413.5Q775,371 775,314L775,0L691,0L691,289Q691,327 683.5,359.5Q676,392 653.5,412Q631,432 585,432Q531,432 498.5,390.5Q466,349 466,269L466,0L382,0L382,289Q382,327 374.5,359.5Q367,392 344.5,412Q322,432 276,432Q240,432 213,413.5Q186,395 171,358.5Q156,322 156,269L156,0L72,0Z"/><path transform="translate(202.45 308) scale(0.015 -0.015)" d="M72,-162L72,496L133,496L156,418Q171,444 194,463.5Q217,483 247.5,493.5Q278,504 317,504Q374,504 422.5,473.5Q471,443 500.5,385.5Q530,328 530,246Q530,165 500.5,107Q471,49 422.5,18.5Q374,-12 317,-12Q278,-12 247.5,-1.5Q217,9 194,29Q171,49 156,75L156,-162L72,-162ZM295,60Q359,60 397.5,109Q436,158 436,246Q436,335 397.5,383.5Q359,432 295,432Q231,432 192.5,383.5Q154,335 154,246Q154,158 192.5,109Q231,60 295,60Z"/><path transform="translate(210.94 308) scale(0.015 -0.015)" d="M239,-12Q196,-12 154.5,1.5Q113,15 80.5,42.5Q48,70 31,112L112,142Q123,101 161,80Q199,59 240,59Q289,59 323,80Q357,101 357,136Q357,168 331,185Q305,202 250,214L192,227Q150,237 116.5,253Q83,269 63.5,296Q44,323 44,366Q44,409 70,440.5Q96,472 139.5,489Q183,506 235,506Q297,506 350,480.5Q403,455 426,402L347,373Q334,404 300.5,419.5Q267,435 229,435Q187,435 157.5,417.5Q128,400 128,368Q128,341 149,326.5Q170,312 213,302L271,289Q323,278 361,261Q399,244 420,215.5Q441,187 441,140Q441,95 414,60.5Q387,26 341.5,7Q296,-12 239,-12Z"/></g><path d="M8,279L11.33,259.32L14.67,242.4L18,227.86L21.33,215.37L24.67,204.63L28,195.4L31.33,187.47L34.67,180.66L38,174.8L41.33,169.77L44.67,165.44L48,161.72L51.33,158.53L54.67,155.78L58,153.42L61.33,151.4L64.67,149.65L68,148.16L71.33,146.87L74.67,145.76L78,144.81L81.33,143.99L84.67,143.29L88,142.69L91.33,142.17L94.67,141.72L98,141.34L101.33,141.01L104.67,140.73L108,140.49L111.33,140.28L114.67,140.1L118,139.94L121.33,139.81L124.67,139.7L128,139.6L131.33,139.51L134.67,139.44L138,139.38L141.33,139.33L144.67,139.28L148,139.24L151.33,139.21L154.67,139.18L158,139.15L161.33,139.13L164.67,139.11L168,139.1L171.33,139.08L174.67,139.07L178,139.06L181.33,139.05L184.67,139.05L188,139.04L191.33,139.03L194.67,139.03L198,139.02L201.33,139.02L204.67,139.02L208,139.02" stroke="#2A1F1A" stroke-width="1.75" stroke-dasharray="7 5" fill="none" stroke-linecap="butt"/><path d="M8,279L11.33,279L14.67,279L18,279L21.33,279L24.67,279L28,279L31.33,279L34.67,279L38,279L41.33,279L44.67,279L48,279L51.33,279L54.67,279L58,279L61.33,279L64.67,279L68,279L71.33,279L74.67,279L78,279L81.33,279L84.67,279L88,279L91.33,279L94.67,279L98,279L101.33,279L104.67,279L108,279L111.33,279L114.67,279L118,279L121.33,279L124.67,279L128,279L131.33,279L134.67,279L138,279L141.33,279L144.67,278.95L148,278.17L151.33,276.81L154.67,275.02L158,272.85L161.33,270.34L164.67,267.53L168,264.43L171.33,261.06L174.67,257.43L178,253.56L181.33,249.45L184.67,245.12L188,240.56L191.33,235.8L194.67,230.83L198,225.66L201.33,220.3L204.67,214.74L208,209" stroke="#2A1F1A" stroke-width="1.75" stroke-dasharray="7 5" fill="none" stroke-linecap="butt"/><path d="M8,279H20L25,237H57L62,195H94L99,153H131L136,111H168L173,69H208" fill="none" stroke="#2A1F1A" stroke-width="3" stroke-linejoin="miter"/><circle cx="25" cy="237" r="5.5" fill="#F2A33A" stroke="#2A1F1A" stroke-width="1.5"/><circle cx="62" cy="195" r="5.5" fill="#F2A33A" stroke="#2A1F1A" stroke-width="1.5"/><circle cx="99" cy="153" r="5.5" fill="#F2A33A" stroke="#2A1F1A" stroke-width="1.5"/><circle cx="136" cy="111" r="5.5" fill="#F2A33A" stroke="#2A1F1A" stroke-width="1.5"/><circle cx="173" cy="69" r="5.5" fill="#F2A33A" stroke="#2A1F1A" stroke-width="1.5"/><g class="fe"><path transform="translate(220.00 44.76) scale(0.015 -0.015)" d="M60,0L60,668L206,668L206,128L533,128L533,0L60,0Z"/><path transform="translate(228.28 44.76) scale(0.015 -0.015)" d="M196,-12Q149,-12 110,5.5Q71,23 48,55.5Q25,88 25,133Q25,192 66,228Q107,264 183,283.5Q259,303 360,311L360,325Q360,370 336,391.5Q312,413 267,413Q233,413 208.5,397Q184,381 176,350L57,392Q80,443 136.5,476Q193,509 273,509Q380,509 436.5,461.5Q493,414 493,303L493,193Q493,159 495,122.5Q497,86 501,54Q505,22 510,0L381,0L362,62Q336,23 293.5,5.5Q251,-12 196,-12ZM246,85Q278,85 304,96Q330,107 345,133Q360,159 360,204L360,225Q269,218 219,200Q169,182 169,142Q169,116 190.5,100.5Q212,85 246,85Z"/><path transform="translate(241.24 44.76) scale(0.015 -0.015)" d="M249,0Q191,0 157,10.5Q123,21 108.5,50.5Q94,80 94,137L94,389L12,389L12,496L94,496L94,620L233,620L233,496L341,496L341,389L233,389L233,172Q233,136 246,125.5Q259,115 295,115L341,115L341,0L249,0Z"/><path transform="translate(246.88 44.76) scale(0.015 -0.015)" d="M57,0L57,496L165,496L192,405Q209,443 232,466.5Q255,490 286,500Q317,510 356,509L356,369Q301,375 266,363Q231,351 213.5,321.5Q196,292 196,243L196,0L57,0Z"/><path transform="translate(252.52 44.76) scale(0.015 -0.015)" d="M196,-12Q149,-12 110,5.5Q71,23 48,55.5Q25,88 25,133Q25,192 66,228Q107,264 183,283.5Q259,303 360,311L360,325Q360,370 336,391.5Q312,413 267,413Q233,413 208.5,397Q184,381 176,350L57,392Q80,443 136.5,476Q193,509 273,509Q380,509 436.5,461.5Q493,414 493,303L493,193Q493,159 495,122.5Q497,86 501,54Q505,22 510,0L381,0L362,62Q336,23 293.5,5.5Q251,-12 196,-12ZM246,85Q278,85 304,96Q330,107 345,133Q360,159 360,204L360,225Q269,218 219,200Q169,182 169,142Q169,116 190.5,100.5Q212,85 246,85Z"/><path transform="translate(260.80 44.76) scale(0.015 -0.015)" d="M-68,-162L-68,-51L-13,-51Q17,-51 33,-46Q49,-41 55,-27.5Q61,-14 61,10L61,496L200,496L200,-10Q200,-69 177.5,-102.5Q155,-136 112.5,-149Q70,-162 11,-162L-68,-162ZM131,580Q96,580 71,605Q46,630 46,665Q46,701 71,725.5Q96,750 131,750Q167,750 191.5,725.5Q216,701 216,665Q216,630 191,605Q166,580 131,580Z"/><path transform="translate(264.69 44.76) scale(0.015 -0.015)" d="M296,-12Q216,-12 156,20Q96,52 63,111Q30,170 30,250Q30,329 65.5,387Q101,445 160.5,477Q220,509 291,509Q351,509 399.5,486.5Q448,464 481,424Q514,384 529.5,329.5Q545,275 540,211L167,211Q173,180 185.5,158.5Q198,137 215,123.5Q232,110 252.5,104Q273,98 293,98Q329,98 355,109Q381,120 396,137L509,97Q473,42 416,15Q359,-12 296,-12ZM166,298L409,298Q408,331 392.5,354.5Q377,378 352,391Q327,404 294,404Q265,404 238,393.5Q211,383 192.5,360.5Q174,338 166,298Z"/><path transform="translate(273.13 44.76) scale(0.015 -0.015)" d="M279,-12Q199,-12 143.5,21Q88,54 59,113.5Q30,173 30,250Q30,327 61.5,385.5Q93,444 149.5,476.5Q206,509 281,509Q324,509 365.5,496.5Q407,484 441.5,456Q476,428 498,382L380,340Q368,371 343,385Q318,399 287,399Q258,399 231.5,384.5Q205,370 188.5,337Q172,304 172,249Q172,194 189,160.5Q206,127 232,112.5Q258,98 287,98Q321,98 344.5,111.5Q368,125 382,148L497,106Q473,64 437.5,37.5Q402,11 361,-0.5Q320,-12 279,-12Z"/><path transform="translate(280.78 44.76) scale(0.015 -0.015)" d="M249,0Q191,0 157,10.5Q123,21 108.5,50.5Q94,80 94,137L94,389L12,389L12,496L94,496L94,620L233,620L233,496L341,496L341,389L233,389L233,172Q233,136 246,125.5Q259,115 295,115L341,115L341,0L249,0Z"/><path transform="translate(286.42 44.76) scale(0.015 -0.015)" d="M288,-12Q237,-12 191,3.5Q145,19 108.5,51Q72,83 51,132Q30,181 30,248Q30,316 51,365Q72,414 108.5,446Q145,478 191,493.5Q237,509 288,509Q338,509 384,493.5Q430,478 466.5,446Q503,414 524.5,365Q546,316 546,248Q546,181 524.5,132Q503,83 466.5,51Q430,19 384,3.5Q338,-12 288,-12ZM288,98Q319,98 345.5,112.5Q372,127 387.5,160Q403,193 403,248Q403,304 387.5,337Q372,370 345.5,384.5Q319,399 288,399Q256,399 230,384.5Q204,370 188,337Q172,304 172,248Q172,193 188,160Q204,127 230,112.5Q256,98 288,98Z"/><path transform="translate(295.06 44.76) scale(0.015 -0.015)" d="M101,0L101,390L21,390L21,496L241,496L241,0L101,0ZM164,580Q129,580 104,605Q79,630 79,665Q79,701 104,725.5Q129,750 164,750Q200,750 224.5,725.5Q249,701 249,665Q249,630 224,605Q199,580 164,580Z"/><path transform="translate(299.56 44.76) scale(0.015 -0.015)" d="M57,0L57,496L165,496L192,405Q209,443 232,466.5Q255,490 286,500Q317,510 356,509L356,369Q301,375 266,363Q231,351 213.5,321.5Q196,292 196,243L196,0L57,0Z"/><path transform="translate(305.20 44.76) scale(0.015 -0.015)" d="M296,-12Q216,-12 156,20Q96,52 63,111Q30,170 30,250Q30,329 65.5,387Q101,445 160.5,477Q220,509 291,509Q351,509 399.5,486.5Q448,464 481,424Q514,384 529.5,329.5Q545,275 540,211L167,211Q173,180 185.5,158.5Q198,137 215,123.5Q232,110 252.5,104Q273,98 293,98Q329,98 355,109Q381,120 396,137L509,97Q473,42 416,15Q359,-12 296,-12ZM166,298L409,298Q408,331 392.5,354.5Q377,378 352,391Q327,404 294,404Q265,404 238,393.5Q211,383 192.5,360.5Q174,338 166,298Z"/></g><g class="fe"><path transform="translate(220.00 64.26) scale(0.015 -0.015)" d="M57,0L57,496L165,496L192,405Q209,443 232,466.5Q255,490 286,500Q317,510 356,509L356,369Q301,375 266,363Q231,351 213.5,321.5Q196,292 196,243L196,0L57,0Z"/><path transform="translate(225.64 64.26) scale(0.015 -0.015)" d="M296,-12Q216,-12 156,20Q96,52 63,111Q30,170 30,250Q30,329 65.5,387Q101,445 160.5,477Q220,509 291,509Q351,509 399.5,486.5Q448,464 481,424Q514,384 529.5,329.5Q545,275 540,211L167,211Q173,180 185.5,158.5Q198,137 215,123.5Q232,110 252.5,104Q273,98 293,98Q329,98 355,109Q381,120 396,137L509,97Q473,42 416,15Q359,-12 296,-12ZM166,298L409,298Q408,331 392.5,354.5Q377,378 352,391Q327,404 294,404Q265,404 238,393.5Q211,383 192.5,360.5Q174,338 166,298Z"/><path transform="translate(234.09 64.26) scale(0.015 -0.015)" d="M249,0Q191,0 157,10.5Q123,21 108.5,50.5Q94,80 94,137L94,389L12,389L12,496L94,496L94,620L233,620L233,496L341,496L341,389L233,389L233,172Q233,136 246,125.5Q259,115 295,115L341,115L341,0L249,0Z"/><path transform="translate(239.72 64.26) scale(0.015 -0.015)" d="M296,-12Q216,-12 156,20Q96,52 63,111Q30,170 30,250Q30,329 65.5,387Q101,445 160.5,477Q220,509 291,509Q351,509 399.5,486.5Q448,464 481,424Q514,384 529.5,329.5Q545,275 540,211L167,211Q173,180 185.5,158.5Q198,137 215,123.5Q232,110 252.5,104Q273,98 293,98Q329,98 355,109Q381,120 396,137L509,97Q473,42 416,15Q359,-12 296,-12ZM166,298L409,298Q408,331 392.5,354.5Q377,378 352,391Q327,404 294,404Q265,404 238,393.5Q211,383 192.5,360.5Q174,338 166,298Z"/><path transform="translate(248.17 64.26) scale(0.015 -0.015)" d="M57,0L57,496L176,496L196,428Q207,448 228.5,466Q250,484 280.5,496.5Q311,509 350,509Q413,509 449.5,485Q486,461 501.5,415Q517,369 517,304L517,0L377,0L377,269Q377,304 372.5,334Q368,364 351,382Q334,400 295,400Q245,400 220.5,364Q196,328 196,258L196,0L57,0Z"/><path transform="translate(256.74 64.26) scale(0.015 -0.015)" d="M224,-12Q160,-12 123,12.5Q86,37 70.5,83.5Q55,130 55,195L55,496L194,496L194,230Q194,195 198,164Q202,133 219.5,115.5Q237,98 275,98Q325,98 347.5,130Q370,162 370,233L370,496L510,496L510,0L391,0L370,70Q348,34 315,11Q282,-12 224,-12Z"/><path transform="translate(265.24 64.26) scale(0.015 -0.015)" d="M296,-12Q216,-12 156,20Q96,52 63,111Q30,170 30,250Q30,329 65.5,387Q101,445 160.5,477Q220,509 291,509Q351,509 399.5,486.5Q448,464 481,424Q514,384 529.5,329.5Q545,275 540,211L167,211Q173,180 185.5,158.5Q198,137 215,123.5Q232,110 252.5,104Q273,98 293,98Q329,98 355,109Q381,120 396,137L509,97Q473,42 416,15Q359,-12 296,-12ZM166,298L409,298Q408,331 392.5,354.5Q377,378 352,391Q327,404 294,404Q265,404 238,393.5Q211,383 192.5,360.5Q174,338 166,298Z"/></g><g class="fe"><path transform="translate(220.00 83.76) scale(0.015 -0.015)" d="M267,-12Q196,-12 144,21.5Q92,55 64,113Q36,171 36,246Q36,320 65.5,378.5Q95,437 149,470.5Q203,504 276,504Q321,504 357,488.5Q393,473 420,448Q447,423 463,392L386,364Q370,394 339,412Q308,430 270,430Q233,430 200,410.5Q167,391 147,350.5Q127,310 127,247Q127,185 147.5,143.5Q168,102 200.5,82Q233,62 270,62Q311,62 341.5,80.5Q372,99 388,127L465,99Q447,67 417,42Q387,17 349,2.5Q311,-12 267,-12Z"/><path transform="translate(227.28 83.76) scale(0.015 -0.015)" d="M72,0L72,708L156,708L156,421Q170,445 191.5,463.5Q213,482 243.5,493Q274,504 316,504Q376,504 412,480Q448,456 464,413.5Q480,371 480,314L480,0L396,0L396,289Q396,327 389,359.5Q382,392 358.5,412Q335,432 287,432Q226,432 191,390.5Q156,349 156,269L156,0L72,0Z"/><path transform="translate(235.53 83.76) scale(0.015 -0.015)" d="M204,-12Q157,-12 117.5,4.5Q78,21 54.5,52.5Q31,84 31,129Q31,188 72,224Q113,260 189.5,280Q266,300 372,310L372,319Q372,372 344.5,404.5Q317,437 258,437Q212,437 183,416.5Q154,396 146,360L65,384Q85,441 136.5,472.5Q188,504 255,504Q358,504 405,454.5Q452,405 452,303L452,187Q452,146 454.5,112.5Q457,79 461.5,51.5Q466,24 470,0L393,0L373,68Q352,31 310.5,9.5Q269,-12 204,-12ZM223,55Q263,55 297,69Q331,83 351.5,115.5Q372,148 372,204L372,243Q254,233 189,208Q124,183 124,131Q124,97 150.5,76Q177,55 223,55Z"/><path transform="translate(243.40 83.76) scale(0.015 -0.015)" d="M544,-173Q509,-173 478.5,-160.5Q448,-148 429,-117Q410,-86 410,-30L410,75Q390,35 349,11.5Q308,-12 249,-12Q193,-12 144,18.5Q95,49 65.5,106.5Q36,164 36,246Q36,328 65.5,385.5Q95,443 144,473.5Q193,504 249,504Q308,504 348,480.5Q388,457 410,418L433,496L494,496L494,-24Q494,-47 501,-62.5Q508,-78 523.5,-86Q539,-94 564,-94Q579,-94 593.5,-91.5Q608,-89 624,-82L624,-160Q605,-167 586.5,-170Q568,-173 544,-173ZM271,60Q335,60 373.5,109Q412,158 412,246Q412,335 373.5,383.5Q335,432 271,432Q207,432 168.5,383.5Q130,335 130,246Q130,158 168.5,109Q207,60 271,60Z"/><path transform="translate(252.01 83.76) scale(0.015 -0.015)" d="M229,-12Q171,-12 136,12.5Q101,37 85.5,80.5Q70,124 70,180L70,496L154,496L154,205Q154,167 161,134Q168,101 190.5,81.5Q213,62 258,62Q317,62 350.5,103.5Q384,145 384,224L384,496L468,496L468,0L405,0L384,72Q363,36 327,12Q291,-12 229,-12Z"/><path transform="translate(260.11 83.76) scale(0.015 -0.015)" d="M279,-12Q201,-12 147,22.5Q93,57 64.5,115.5Q36,174 36,247Q36,326 68,383.5Q100,441 154.5,472.5Q209,504 277,504Q336,504 381,480.5Q426,457 455.5,417.5Q485,378 498.5,328Q512,278 508,225L124,225Q128,176 144.5,144Q161,112 184,94Q207,76 232.5,69Q258,62 279,62Q321,62 349.5,75.5Q378,89 395,111L476,87Q449,44 399,16Q349,-12 279,-12ZM125,292L419,292Q419,327 401.5,359Q384,391 352.5,411.5Q321,432 277,432Q244,432 211.5,419Q179,406 155.5,375.5Q132,345 125,292Z"/><path transform="translate(272.38 83.76) scale(0.015 -0.015)" d="M279,-12Q201,-12 147,22.5Q93,57 64.5,115.5Q36,174 36,247Q36,326 68,383.5Q100,441 154.5,472.5Q209,504 277,504Q336,504 381,480.5Q426,457 455.5,417.5Q485,378 498.5,328Q512,278 508,225L124,225Q128,176 144.5,144Q161,112 184,94Q207,76 232.5,69Q258,62 279,62Q321,62 349.5,75.5Q378,89 395,111L476,87Q449,44 399,16Q349,-12 279,-12ZM125,292L419,292Q419,327 401.5,359Q384,391 352.5,411.5Q321,432 277,432Q244,432 211.5,419Q179,406 155.5,375.5Q132,345 125,292ZM250,571L331,675Q344,692 353.5,699Q363,706 376,706Q392,706 402.5,696.5Q413,687 413,670Q413,658 403.5,646Q394,634 373,616L319,571L250,571Z"/><path transform="translate(280.45 83.76) scale(0.015 -0.015)" d="M221,0Q174,0 148.5,9.5Q123,19 113.5,46Q104,73 104,124L104,429L20,429L20,496L104,496L104,620L188,620L188,496L291,496L291,429L188,429L188,138Q188,96 197.5,85Q207,74 239,74L291,74L291,0L221,0Z"/><path transform="translate(285.34 83.76) scale(0.015 -0.015)" d="M204,-12Q157,-12 117.5,4.5Q78,21 54.5,52.5Q31,84 31,129Q31,188 72,224Q113,260 189.5,280Q266,300 372,310L372,319Q372,372 344.5,404.5Q317,437 258,437Q212,437 183,416.5Q154,396 146,360L65,384Q85,441 136.5,472.5Q188,504 255,504Q358,504 405,454.5Q452,405 452,303L452,187Q452,146 454.5,112.5Q457,79 461.5,51.5Q466,24 470,0L393,0L373,68Q352,31 310.5,9.5Q269,-12 204,-12ZM223,55Q263,55 297,69Q331,83 351.5,115.5Q372,148 372,204L372,243Q254,233 189,208Q124,183 124,131Q124,97 150.5,76Q177,55 223,55Z"/><path transform="translate(293.22 83.76) scale(0.015 -0.015)" d="M72,-162L72,496L133,496L156,418Q171,444 194,463.5Q217,483 247.5,493.5Q278,504 317,504Q374,504 422.5,473.5Q471,443 500.5,385.5Q530,328 530,246Q530,165 500.5,107Q471,49 422.5,18.5Q374,-12 317,-12Q278,-12 247.5,-1.5Q217,9 194,29Q171,49 156,75L156,-162L72,-162ZM295,60Q359,60 397.5,109Q436,158 436,246Q436,335 397.5,383.5Q359,432 295,432Q231,432 192.5,383.5Q154,335 154,246Q154,158 192.5,109Q231,60 295,60Z"/><path transform="translate(301.70 83.76) scale(0.015 -0.015)" d="M279,-12Q201,-12 147,22.5Q93,57 64.5,115.5Q36,174 36,247Q36,326 68,383.5Q100,441 154.5,472.5Q209,504 277,504Q336,504 381,480.5Q426,457 455.5,417.5Q485,378 498.5,328Q512,278 508,225L124,225Q128,176 144.5,144Q161,112 184,94Q207,76 232.5,69Q258,62 279,62Q321,62 349.5,75.5Q378,89 395,111L476,87Q449,44 399,16Q349,-12 279,-12ZM125,292L419,292Q419,327 401.5,359Q384,391 352.5,411.5Q321,432 277,432Q244,432 211.5,419Q179,406 155.5,375.5Q132,345 125,292Z"/></g><g class="fe"><path transform="translate(220.00 103.26) scale(0.015 -0.015)" d="M72,0L72,496L133,496L160,404Q178,434 203.5,456.5Q229,479 262.5,491.5Q296,504 337,504L337,417Q269,417 229.5,393.5Q190,370 173,324.5Q156,279 156,213L156,0L72,0Z"/><path transform="translate(225.24 103.26) scale(0.015 -0.015)" d="M204,-12Q157,-12 117.5,4.5Q78,21 54.5,52.5Q31,84 31,129Q31,188 72,224Q113,260 189.5,280Q266,300 372,310L372,319Q372,372 344.5,404.5Q317,437 258,437Q212,437 183,416.5Q154,396 146,360L65,384Q85,441 136.5,472.5Q188,504 255,504Q358,504 405,454.5Q452,405 452,303L452,187Q452,146 454.5,112.5Q457,79 461.5,51.5Q466,24 470,0L393,0L373,68Q352,31 310.5,9.5Q269,-12 204,-12ZM223,55Q263,55 297,69Q331,83 351.5,115.5Q372,148 372,204L372,243Q254,233 189,208Q124,183 124,131Q124,97 150.5,76Q177,55 223,55Z"/><path transform="translate(233.11 103.26) scale(0.015 -0.015)" d="M72,-162L72,496L133,496L156,418Q171,444 194,463.5Q217,483 247.5,493.5Q278,504 317,504Q374,504 422.5,473.5Q471,443 500.5,385.5Q530,328 530,246Q530,165 500.5,107Q471,49 422.5,18.5Q374,-12 317,-12Q278,-12 247.5,-1.5Q217,9 194,29Q171,49 156,75L156,-162L72,-162ZM295,60Q359,60 397.5,109Q436,158 436,246Q436,335 397.5,383.5Q359,432 295,432Q231,432 192.5,383.5Q154,335 154,246Q154,158 192.5,109Q231,60 295,60Z"/><path transform="translate(241.60 103.26) scale(0.015 -0.015)" d="M72,-162L72,496L133,496L156,418Q171,444 194,463.5Q217,483 247.5,493.5Q278,504 317,504Q374,504 422.5,473.5Q471,443 500.5,385.5Q530,328 530,246Q530,165 500.5,107Q471,49 422.5,18.5Q374,-12 317,-12Q278,-12 247.5,-1.5Q217,9 194,29Q171,49 156,75L156,-162L72,-162ZM295,60Q359,60 397.5,109Q436,158 436,246Q436,335 397.5,383.5Q359,432 295,432Q231,432 192.5,383.5Q154,335 154,246Q154,158 192.5,109Q231,60 295,60Z"/><path transform="translate(250.09 103.26) scale(0.015 -0.015)" d="M274,-12Q231,-12 189,3Q147,18 112.5,49.5Q78,81 57,130Q36,179 36,246Q36,313 57,362Q78,411 112.5,442.5Q147,474 189,489Q231,504 274,504Q317,504 359,489Q401,474 435.5,442.5Q470,411 491,362Q512,313 512,246Q512,179 491,130Q470,81 435.5,49.5Q401,18 359,3Q317,-12 274,-12ZM274,62Q312,62 345.5,81.5Q379,101 400.5,141.5Q422,182 422,246Q422,310 400.5,350.5Q379,391 345.5,410.5Q312,430 274,430Q237,430 203,410.5Q169,391 147.5,350.5Q126,310 126,246Q126,182 147.5,141.5Q169,101 203,81.5Q237,62 274,62Z"/><path transform="translate(258.31 103.26) scale(0.015 -0.015)" d="M72,0L72,496L133,496L160,404Q178,434 203.5,456.5Q229,479 262.5,491.5Q296,504 337,504L337,417Q269,417 229.5,393.5Q190,370 173,324.5Q156,279 156,213L156,0L72,0Z"/><path transform="translate(263.55 103.26) scale(0.015 -0.015)" d="M221,0Q174,0 148.5,9.5Q123,19 113.5,46Q104,73 104,124L104,429L20,429L20,496L104,496L104,620L188,620L188,496L291,496L291,429L188,429L188,138Q188,96 197.5,85Q207,74 239,74L291,74L291,0L221,0Z"/><path transform="translate(268.44 103.26) scale(0.015 -0.015)" d="M279,-12Q201,-12 147,22.5Q93,57 64.5,115.5Q36,174 36,247Q36,326 68,383.5Q100,441 154.5,472.5Q209,504 277,504Q336,504 381,480.5Q426,457 455.5,417.5Q485,378 498.5,328Q512,278 508,225L124,225Q128,176 144.5,144Q161,112 184,94Q207,76 232.5,69Q258,62 279,62Q321,62 349.5,75.5Q378,89 395,111L476,87Q449,44 399,16Q349,-12 279,-12ZM125,292L419,292Q419,327 401.5,359Q384,391 352.5,411.5Q321,432 277,432Q244,432 211.5,419Q179,406 155.5,375.5Q132,345 125,292Z"/></g><g class="fe"><path transform="translate(220.00 134.28) scale(0.015 -0.015)" d="M60,0L60,668L206,668L206,128L533,128L533,0L60,0Z"/><path transform="translate(228.28 134.28) scale(0.015 -0.015)" d="M101,0L101,390L21,390L21,496L241,496L241,0L101,0ZM164,580Q129,580 104,605Q79,630 79,665Q79,701 104,725.5Q129,750 164,750Q200,750 224.5,725.5Q249,701 249,665Q249,630 224,605Q199,580 164,580Z"/><path transform="translate(232.78 134.28) scale(0.015 -0.015)" d="M187,0L10,496L155,496L265,149L375,496L520,496L342,0L187,0Z"/><path transform="translate(240.73 134.28) scale(0.015 -0.015)" d="M57,0L57,496L165,496L192,405Q209,443 232,466.5Q255,490 286,500Q317,510 356,509L356,369Q301,375 266,363Q231,351 213.5,321.5Q196,292 196,243L196,0L57,0Z"/><path transform="translate(246.37 134.28) scale(0.015 -0.015)" d="M296,-12Q216,-12 156,20Q96,52 63,111Q30,170 30,250Q30,329 65.5,387Q101,445 160.5,477Q220,509 291,509Q351,509 399.5,486.5Q448,464 481,424Q514,384 529.5,329.5Q545,275 540,211L167,211Q173,180 185.5,158.5Q198,137 215,123.5Q232,110 252.5,104Q273,98 293,98Q329,98 355,109Q381,120 396,137L509,97Q473,42 416,15Q359,-12 296,-12ZM166,298L409,298Q408,331 392.5,354.5Q377,378 352,391Q327,404 294,404Q265,404 238,393.5Q211,383 192.5,360.5Q174,338 166,298Z"/><path transform="translate(254.81 134.28) scale(0.015 -0.015)" d="M57,0L57,496L165,496L192,405Q209,443 232,466.5Q255,490 286,500Q317,510 356,509L356,369Q301,375 266,363Q231,351 213.5,321.5Q196,292 196,243L196,0L57,0Z"/><path transform="translate(265.13 134.28) scale(0.015 -0.015)" d="M187,0L10,496L155,496L265,149L375,496L520,496L342,0L187,0Z"/><path transform="translate(273.08 134.28) scale(0.015 -0.015)" d="M101,0L101,390L21,390L21,496L241,496L241,0L101,0ZM164,580Q129,580 104,605Q79,630 79,665Q79,701 104,725.5Q129,750 164,750Q200,750 224.5,725.5Q249,701 249,665Q249,630 224,605Q199,580 164,580Z"/><path transform="translate(277.58 134.28) scale(0.015 -0.015)" d="M249,0Q191,0 157,10.5Q123,21 108.5,50.5Q94,80 94,137L94,389L12,389L12,496L94,496L94,620L233,620L233,496L341,496L341,389L233,389L233,172Q233,136 246,125.5Q259,115 295,115L341,115L341,0L249,0Z"/><path transform="translate(283.23 134.28) scale(0.015 -0.015)" d="M296,-12Q216,-12 156,20Q96,52 63,111Q30,170 30,250Q30,329 65.5,387Q101,445 160.5,477Q220,509 291,509Q351,509 399.5,486.5Q448,464 481,424Q514,384 529.5,329.5Q545,275 540,211L167,211Q173,180 185.5,158.5Q198,137 215,123.5Q232,110 252.5,104Q273,98 293,98Q329,98 355,109Q381,120 396,137L509,97Q473,42 416,15Q359,-12 296,-12ZM166,298L409,298Q408,331 392.5,354.5Q377,378 352,391Q327,404 294,404Q265,404 238,393.5Q211,383 192.5,360.5Q174,338 166,298Z"/></g><g class="fe"><path transform="translate(220.00 153.78) scale(0.015 -0.015)" d="M187,0Q141,0 115,10Q89,20 78.5,45.5Q68,71 68,118L68,708L152,708L152,128Q152,96 161.5,85Q171,74 208,74L242,74L242,0L187,0Z"/><path transform="translate(223.93 153.78) scale(0.015 -0.015)" d="M204,-12Q157,-12 117.5,4.5Q78,21 54.5,52.5Q31,84 31,129Q31,188 72,224Q113,260 189.5,280Q266,300 372,310L372,319Q372,372 344.5,404.5Q317,437 258,437Q212,437 183,416.5Q154,396 146,360L65,384Q85,441 136.5,472.5Q188,504 255,504Q358,504 405,454.5Q452,405 452,303L452,187Q452,146 454.5,112.5Q457,79 461.5,51.5Q466,24 470,0L393,0L373,68Q352,31 310.5,9.5Q269,-12 204,-12ZM223,55Q263,55 297,69Q331,83 351.5,115.5Q372,148 372,204L372,243Q254,233 189,208Q124,183 124,131Q124,97 150.5,76Q177,55 223,55Z"/><path transform="translate(236.00 153.78) scale(0.015 -0.015)" d="M249,-12Q193,-12 144,18.5Q95,49 65.5,106.5Q36,164 36,246Q36,328 65.5,385.5Q95,443 144,473.5Q193,504 249,504Q308,504 348,480.5Q388,457 410,418L410,708L494,708L494,187Q494,162 496.5,113.5Q499,65 511,0L432,0L410,75Q390,35 349,11.5Q308,-12 249,-12ZM271,60Q314,60 345.5,82Q377,104 394.5,145.5Q412,187 412,246Q412,335 373.5,383.5Q335,432 271,432Q207,432 168.5,383.5Q130,335 130,246Q130,158 168.5,109Q207,60 271,60Z"/><path transform="translate(244.47 153.78) scale(0.015 -0.015)" d="M279,-12Q201,-12 147,22.5Q93,57 64.5,115.5Q36,174 36,247Q36,326 68,383.5Q100,441 154.5,472.5Q209,504 277,504Q336,504 381,480.5Q426,457 455.5,417.5Q485,378 498.5,328Q512,278 508,225L124,225Q128,176 144.5,144Q161,112 184,94Q207,76 232.5,69Q258,62 279,62Q321,62 349.5,75.5Q378,89 395,111L476,87Q449,44 399,16Q349,-12 279,-12ZM125,292L419,292Q419,327 401.5,359Q384,391 352.5,411.5Q321,432 277,432Q244,432 211.5,419Q179,406 155.5,375.5Q132,345 125,292Z"/><path transform="translate(252.53 153.78) scale(0.015 -0.015)" d="M221,0Q174,0 148.5,9.5Q123,19 113.5,46Q104,73 104,124L104,429L20,429L20,496L104,496L104,620L188,620L188,496L291,496L291,429L188,429L188,138Q188,96 197.5,85Q207,74 239,74L291,74L291,0L221,0Z"/><path transform="translate(257.43 153.78) scale(0.015 -0.015)" d="M221,0Q174,0 148.5,9.5Q123,19 113.5,46Q104,73 104,124L104,429L20,429L20,496L104,496L104,620L188,620L188,496L291,496L291,429L188,429L188,138Q188,96 197.5,85Q207,74 239,74L291,74L291,0L221,0Z"/><path transform="translate(262.31 153.78) scale(0.015 -0.015)" d="M279,-12Q201,-12 147,22.5Q93,57 64.5,115.5Q36,174 36,247Q36,326 68,383.5Q100,441 154.5,472.5Q209,504 277,504Q336,504 381,480.5Q426,457 455.5,417.5Q485,378 498.5,328Q512,278 508,225L124,225Q128,176 144.5,144Q161,112 184,94Q207,76 232.5,69Q258,62 279,62Q321,62 349.5,75.5Q378,89 395,111L476,87Q449,44 399,16Q349,-12 279,-12ZM125,292L419,292Q419,327 401.5,359Q384,391 352.5,411.5Q321,432 277,432Q244,432 211.5,419Q179,406 155.5,375.5Q132,345 125,292Z"/><path transform="translate(274.58 153.78) scale(0.015 -0.015)" d="M99,0L99,429L15,429L15,496L99,496L99,582Q99,633 109,663Q119,693 148,705.5Q177,718 232,718L286,718L286,647L234,647Q202,647 192.5,634Q183,621 183,583L183,496L286,496L286,429L183,429L183,0L99,0Z"/><path transform="translate(279.30 153.78) scale(0.015 -0.015)" d="M72,0L72,496L133,496L160,404Q178,434 203.5,456.5Q229,479 262.5,491.5Q296,504 337,504L337,417Q269,417 229.5,393.5Q190,370 173,324.5Q156,279 156,213L156,0L72,0Z"/><path transform="translate(284.53 153.78) scale(0.015 -0.015)" d="M279,-12Q201,-12 147,22.5Q93,57 64.5,115.5Q36,174 36,247Q36,326 68,383.5Q100,441 154.5,472.5Q209,504 277,504Q336,504 381,480.5Q426,457 455.5,417.5Q485,378 498.5,328Q512,278 508,225L124,225Q128,176 144.5,144Q161,112 184,94Q207,76 232.5,69Q258,62 279,62Q321,62 349.5,75.5Q378,89 395,111L476,87Q449,44 399,16Q349,-12 279,-12ZM125,292L419,292Q419,327 401.5,359Q384,391 352.5,411.5Q321,432 277,432Q244,432 211.5,419Q179,406 155.5,375.5Q132,345 125,292Z"/><path transform="translate(292.60 153.78) scale(0.015 -0.015)" d="M94,0L94,429L25,429L25,496L178,496L178,0L94,0ZM128,590Q103,590 84.5,608.5Q66,627 66,652Q66,678 84.5,696Q103,714 128,714Q154,714 172,696Q190,678 190,652Q190,627 172,608.5Q154,590 128,590Z"/><path transform="translate(296.38 153.78) scale(0.015 -0.015)" d="M72,0L72,496L134,496L156,421Q170,445 191.5,463.5Q213,482 243.5,493Q274,504 316,504Q376,504 412,480Q448,456 464,413.5Q480,371 480,314L480,0L396,0L396,289Q396,327 389,359.5Q382,392 358.5,412Q335,432 287,432Q226,432 191,390.5Q156,349 156,269L156,0L72,0Z"/><path transform="translate(304.63 153.78) scale(0.015 -0.015)" d="M279,-12Q201,-12 147,22.5Q93,57 64.5,115.5Q36,174 36,247Q36,326 68,383.5Q100,441 154.5,472.5Q209,504 277,504Q336,504 381,480.5Q426,457 455.5,417.5Q485,378 498.5,328Q512,278 508,225L124,225Q128,176 144.5,144Q161,112 184,94Q207,76 232.5,69Q258,62 279,62Q321,62 349.5,75.5Q378,89 395,111L476,87Q449,44 399,16Q349,-12 279,-12ZM125,292L419,292Q419,327 401.5,359Q384,391 352.5,411.5Q321,432 277,432Q244,432 211.5,419Q179,406 155.5,375.5Q132,345 125,292Z"/></g><g class="fe"><path transform="translate(220.00 184.76) scale(0.015 -0.015)" d="M361,-12Q258,-12 184.5,30.5Q111,73 72,151Q33,229 33,334Q33,440 74,517.5Q115,595 189.5,637.5Q264,680 366,680Q458,680 528,638.5Q598,597 636,526L507,479Q485,520 445.5,540Q406,560 361,560Q312,560 272.5,533.5Q233,507 209.5,456.5Q186,406 186,334Q186,262 209,211.5Q232,161 272.5,134.5Q313,108 363,108Q391,108 419.5,116Q448,124 472,141.5Q496,159 511,188L640,141Q600,70 527.5,29Q455,-12 361,-12Z"/><path transform="translate(229.87 184.76) scale(0.015 -0.015)" d="M288,-12Q237,-12 191,3.5Q145,19 108.5,51Q72,83 51,132Q30,181 30,248Q30,316 51,365Q72,414 108.5,446Q145,478 191,493.5Q237,509 288,509Q338,509 384,493.5Q430,478 466.5,446Q503,414 524.5,365Q546,316 546,248Q546,181 524.5,132Q503,83 466.5,51Q430,19 384,3.5Q338,-12 288,-12ZM288,98Q319,98 345.5,112.5Q372,127 387.5,160Q403,193 403,248Q403,304 387.5,337Q372,370 345.5,384.5Q319,399 288,399Q256,399 230,384.5Q204,370 188,337Q172,304 172,248Q172,193 188,160Q204,127 230,112.5Q256,98 288,98Z"/><path transform="translate(238.51 184.76) scale(0.015 -0.015)" d="M57,0L57,496L176,496L196,428Q207,448 228.5,466Q250,484 280.5,496.5Q311,509 350,509Q413,509 449.5,485Q486,461 501.5,415Q517,369 517,304L517,0L377,0L377,269Q377,304 372.5,334Q368,364 351,382Q334,400 295,400Q245,400 220.5,364Q196,328 196,258L196,0L57,0Z"/><path transform="translate(247.07 184.76) scale(0.015 -0.015)" d="M258,-13Q202,-13 154.5,2Q107,17 72,45Q37,73 19,114L139,157Q148,125 183,107.5Q218,90 260,90Q298,90 327,103.5Q356,117 356,143Q356,162 338,174.5Q320,187 275,195L195,209Q148,218 112.5,236Q77,254 56.5,283Q36,312 36,353Q36,404 67,439Q98,474 148.5,491.5Q199,509 257,509Q327,509 387.5,483Q448,457 476,396L356,353Q345,380 318,393.5Q291,407 253,407Q213,407 191,394Q169,381 169,360Q169,342 184,332Q199,322 234,315L317,300Q376,289 414.5,271.5Q453,254 472,225.5Q491,197 491,152Q491,98 459.5,61Q428,24 375.5,5.5Q323,-13 258,-13Z"/><path transform="translate(254.69 184.76) scale(0.015 -0.015)" d="M249,0Q191,0 157,10.5Q123,21 108.5,50.5Q94,80 94,137L94,389L12,389L12,496L94,496L94,620L233,620L233,496L341,496L341,389L233,389L233,172Q233,136 246,125.5Q259,115 295,115L341,115L341,0L249,0Z"/><path transform="translate(260.33 184.76) scale(0.015 -0.015)" d="M57,0L57,496L165,496L192,405Q209,443 232,466.5Q255,490 286,500Q317,510 356,509L356,369Q301,375 266,363Q231,351 213.5,321.5Q196,292 196,243L196,0L57,0Z"/><path transform="translate(265.98 184.76) scale(0.015 -0.015)" d="M224,-12Q160,-12 123,12.5Q86,37 70.5,83.5Q55,130 55,195L55,496L194,496L194,230Q194,195 198,164Q202,133 219.5,115.5Q237,98 275,98Q325,98 347.5,130Q370,162 370,233L370,496L510,496L510,0L391,0L370,70Q348,34 315,11Q282,-12 224,-12Z"/><path transform="translate(274.48 184.76) scale(0.015 -0.015)" d="M101,0L101,390L21,390L21,496L241,496L241,0L101,0ZM164,580Q129,580 104,605Q79,630 79,665Q79,701 104,725.5Q129,750 164,750Q200,750 224.5,725.5Q249,701 249,665Q249,630 224,605Q199,580 164,580Z"/><path transform="translate(278.98 184.76) scale(0.015 -0.015)" d="M57,0L57,496L165,496L192,405Q209,443 232,466.5Q255,490 286,500Q317,510 356,509L356,369Q301,375 266,363Q231,351 213.5,321.5Q196,292 196,243L196,0L57,0Z"/><path transform="translate(284.62 184.76) scale(0.015 -0.015)" d="M296,-12Q216,-12 156,20Q96,52 63,111Q30,170 30,250Q30,329 65.5,387Q101,445 160.5,477Q220,509 291,509Q351,509 399.5,486.5Q448,464 481,424Q514,384 529.5,329.5Q545,275 540,211L167,211Q173,180 185.5,158.5Q198,137 215,123.5Q232,110 252.5,104Q273,98 293,98Q329,98 355,109Q381,120 396,137L509,97Q473,42 416,15Q359,-12 296,-12ZM166,298L409,298Q408,331 392.5,354.5Q377,378 352,391Q327,404 294,404Q265,404 238,393.5Q211,383 192.5,360.5Q174,338 166,298Z"/></g><g class="fe"><path transform="translate(220.00 204.26) scale(0.015 -0.015)" d="M57,-162L57,496L175,496L196,426Q212,454 237,472Q262,490 291,499.5Q320,509 349,509Q411,509 460.5,477Q510,445 538.5,387Q567,329 567,248Q567,167 538.5,108.5Q510,50 460.5,19Q411,-12 349,-12Q320,-12 291,-2.5Q262,7 237,26Q212,45 196,72L196,-162L57,-162ZM306,97Q353,97 387,135.5Q421,174 421,248Q421,320 387,360Q353,400 306,400Q257,400 223.5,364.5Q190,329 190,250Q190,172 223.5,134.5Q257,97 306,97Z"/><path transform="translate(228.94 204.26) scale(0.015 -0.015)" d="M57,0L57,496L165,496L192,405Q209,443 232,466.5Q255,490 286,500Q317,510 356,509L356,369Q301,375 266,363Q231,351 213.5,321.5Q196,292 196,243L196,0L57,0Z"/><path transform="translate(234.58 204.26) scale(0.015 -0.015)" d="M288,-12Q237,-12 191,3.5Q145,19 108.5,51Q72,83 51,132Q30,181 30,248Q30,316 51,365Q72,414 108.5,446Q145,478 191,493.5Q237,509 288,509Q338,509 384,493.5Q430,478 466.5,446Q503,414 524.5,365Q546,316 546,248Q546,181 524.5,132Q503,83 466.5,51Q430,19 384,3.5Q338,-12 288,-12ZM288,98Q319,98 345.5,112.5Q372,127 387.5,160Q403,193 403,248Q403,304 387.5,337Q372,370 345.5,384.5Q319,399 288,399Q256,399 230,384.5Q204,370 188,337Q172,304 172,248Q172,193 188,160Q204,127 230,112.5Q256,98 288,98Z"/><path transform="translate(243.22 204.26) scale(0.015 -0.015)" d="M57,-162L57,496L175,496L196,426Q212,454 237,472Q262,490 291,499.5Q320,509 349,509Q411,509 460.5,477Q510,445 538.5,387Q567,329 567,248Q567,167 538.5,108.5Q510,50 460.5,19Q411,-12 349,-12Q320,-12 291,-2.5Q262,7 237,26Q212,45 196,72L196,-162L57,-162ZM306,97Q353,97 387,135.5Q421,174 421,248Q421,320 387,360Q353,400 306,400Q257,400 223.5,364.5Q190,329 190,250Q190,172 223.5,134.5Q257,97 306,97Z"/><path transform="translate(252.16 204.26) scale(0.015 -0.015)" d="M57,0L57,496L165,496L192,405Q209,443 232,466.5Q255,490 286,500Q317,510 356,509L356,369Q301,375 266,363Q231,351 213.5,321.5Q196,292 196,243L196,0L57,0Z"/><path transform="translate(257.80 204.26) scale(0.015 -0.015)" d="M296,-12Q216,-12 156,20Q96,52 63,111Q30,170 30,250Q30,329 65.5,387Q101,445 160.5,477Q220,509 291,509Q351,509 399.5,486.5Q448,464 481,424Q514,384 529.5,329.5Q545,275 540,211L167,211Q173,180 185.5,158.5Q198,137 215,123.5Q232,110 252.5,104Q273,98 293,98Q329,98 355,109Q381,120 396,137L509,97Q473,42 416,15Q359,-12 296,-12ZM166,298L409,298Q408,331 392.5,354.5Q377,378 352,391Q327,404 294,404Q265,404 238,393.5Q211,383 192.5,360.5Q174,338 166,298Z"/><path transform="translate(266.25 204.26) scale(0.015 -0.015)" d="M57,0L57,496L176,496L196,428Q207,448 228,466Q249,484 279,496.5Q309,509 346,509Q404,509 439.5,487.5Q475,466 492,425Q521,467 565,488Q609,509 661,509Q724,509 760,485Q796,461 811.5,415Q827,369 827,304L827,0L688,0L688,269Q688,304 683,334Q678,364 661,382Q644,400 605,400Q558,400 534.5,365.5Q511,331 511,263L511,0L371,0L371,269Q371,304 367,334Q363,364 346,382Q329,400 291,400Q259,400 238,383.5Q217,367 206.5,336.5Q196,306 196,261L196,0L57,0Z"/><path transform="translate(279.48 204.26) scale(0.015 -0.015)" d="M296,-12Q216,-12 156,20Q96,52 63,111Q30,170 30,250Q30,329 65.5,387Q101,445 160.5,477Q220,509 291,509Q351,509 399.5,486.5Q448,464 481,424Q514,384 529.5,329.5Q545,275 540,211L167,211Q173,180 185.5,158.5Q198,137 215,123.5Q232,110 252.5,104Q273,98 293,98Q329,98 355,109Q381,120 396,137L509,97Q473,42 416,15Q359,-12 296,-12ZM166,298L409,298Q408,331 392.5,354.5Q377,378 352,391Q327,404 294,404Q265,404 238,393.5Q211,383 192.5,360.5Q174,338 166,298Z"/><path transform="translate(287.92 204.26) scale(0.015 -0.015)" d="M57,0L57,496L176,496L196,428Q207,448 228.5,466Q250,484 280.5,496.5Q311,509 350,509Q413,509 449.5,485Q486,461 501.5,415Q517,369 517,304L517,0L377,0L377,269Q377,304 372.5,334Q368,364 351,382Q334,400 295,400Q245,400 220.5,364Q196,328 196,258L196,0L57,0Z"/><path transform="translate(296.49 204.26) scale(0.015 -0.015)" d="M249,0Q191,0 157,10.5Q123,21 108.5,50.5Q94,80 94,137L94,389L12,389L12,496L94,496L94,620L233,620L233,496L341,496L341,389L233,389L233,172Q233,136 246,125.5Q259,115 295,115L341,115L341,0L249,0Z"/></g><g class="fe"><path transform="translate(220.00 223.76) scale(0.015 -0.015)" d="M72,0L72,496L133,496L160,404Q178,434 203.5,456.5Q229,479 262.5,491.5Q296,504 337,504L337,417Q269,417 229.5,393.5Q190,370 173,324.5Q156,279 156,213L156,0L72,0Z"/><path transform="translate(225.24 223.76) scale(0.015 -0.015)" d="M94,0L94,429L25,429L25,496L178,496L178,0L94,0ZM128,590Q103,590 84.5,608.5Q66,627 66,652Q66,678 84.5,696Q103,714 128,714Q154,714 172,696Q190,678 190,652Q190,627 172,608.5Q154,590 128,590Z"/><path transform="translate(229.01 223.76) scale(0.015 -0.015)" d="M279,-12Q201,-12 147,22.5Q93,57 64.5,115.5Q36,174 36,247Q36,326 68,383.5Q100,441 154.5,472.5Q209,504 277,504Q336,504 381,480.5Q426,457 455.5,417.5Q485,378 498.5,328Q512,278 508,225L124,225Q128,176 144.5,144Q161,112 184,94Q207,76 232.5,69Q258,62 279,62Q321,62 349.5,75.5Q378,89 395,111L476,87Q449,44 399,16Q349,-12 279,-12ZM125,292L419,292Q419,327 401.5,359Q384,391 352.5,411.5Q321,432 277,432Q244,432 211.5,419Q179,406 155.5,375.5Q132,345 125,292Z"/><path transform="translate(237.09 223.76) scale(0.015 -0.015)" d="M72,0L72,496L134,496L156,421Q170,445 191.5,463.5Q213,482 243.5,493Q274,504 316,504Q376,504 412,480Q448,456 464,413.5Q480,371 480,314L480,0L396,0L396,289Q396,327 389,359.5Q382,392 358.5,412Q335,432 287,432Q226,432 191,390.5Q156,349 156,269L156,0L72,0Z"/><path transform="translate(249.53 223.76) scale(0.015 -0.015)" d="M204,-12Q157,-12 117.5,4.5Q78,21 54.5,52.5Q31,84 31,129Q31,188 72,224Q113,260 189.5,280Q266,300 372,310L372,319Q372,372 344.5,404.5Q317,437 258,437Q212,437 183,416.5Q154,396 146,360L65,384Q85,441 136.5,472.5Q188,504 255,504Q358,504 405,454.5Q452,405 452,303L452,187Q452,146 454.5,112.5Q457,79 461.5,51.5Q466,24 470,0L393,0L373,68Q352,31 310.5,9.5Q269,-12 204,-12ZM223,55Q263,55 297,69Q331,83 351.5,115.5Q372,148 372,204L372,243Q254,233 189,208Q124,183 124,131Q124,97 150.5,76Q177,55 223,55Z"/><path transform="translate(257.41 223.76) scale(0.015 -0.015)" d="M187,0L10,496L101,496L231,110L360,496L451,496L274,0L187,0Z"/><path transform="translate(264.32 223.76) scale(0.015 -0.015)" d="M204,-12Q157,-12 117.5,4.5Q78,21 54.5,52.5Q31,84 31,129Q31,188 72,224Q113,260 189.5,280Q266,300 372,310L372,319Q372,372 344.5,404.5Q317,437 258,437Q212,437 183,416.5Q154,396 146,360L65,384Q85,441 136.5,472.5Q188,504 255,504Q358,504 405,454.5Q452,405 452,303L452,187Q452,146 454.5,112.5Q457,79 461.5,51.5Q466,24 470,0L393,0L373,68Q352,31 310.5,9.5Q269,-12 204,-12ZM223,55Q263,55 297,69Q331,83 351.5,115.5Q372,148 372,204L372,243Q254,233 189,208Q124,183 124,131Q124,97 150.5,76Q177,55 223,55Z"/><path transform="translate(272.20 223.76) scale(0.015 -0.015)" d="M72,0L72,496L134,496L156,421Q170,445 191.5,463.5Q213,482 243.5,493Q274,504 316,504Q376,504 412,480Q448,456 464,413.5Q480,371 480,314L480,0L396,0L396,289Q396,327 389,359.5Q382,392 358.5,412Q335,432 287,432Q226,432 191,390.5Q156,349 156,269L156,0L72,0Z"/><path transform="translate(280.45 223.76) scale(0.015 -0.015)" d="M221,0Q174,0 148.5,9.5Q123,19 113.5,46Q104,73 104,124L104,429L20,429L20,496L104,496L104,620L188,620L188,496L291,496L291,429L188,429L188,138Q188,96 197.5,85Q207,74 239,74L291,74L291,0L221,0Z"/></g><g class="fe"><path transform="translate(220.00 243.26) scale(0.015 -0.015)" d="M187,0Q141,0 115,10Q89,20 78.5,45.5Q68,71 68,118L68,708L152,708L152,128Q152,96 161.5,85Q171,74 208,74L242,74L242,0L187,0Z"/><path transform="translate(223.93 243.26) scale(0.015 -0.015)" d="M274,-12Q231,-12 189,3Q147,18 112.5,49.5Q78,81 57,130Q36,179 36,246Q36,313 57,362Q78,411 112.5,442.5Q147,474 189,489Q231,504 274,504Q317,504 359,489Q401,474 435.5,442.5Q470,411 491,362Q512,313 512,246Q512,179 491,130Q470,81 435.5,49.5Q401,18 359,3Q317,-12 274,-12ZM274,62Q312,62 345.5,81.5Q379,101 400.5,141.5Q422,182 422,246Q422,310 400.5,350.5Q379,391 345.5,410.5Q312,430 274,430Q237,430 203,410.5Q169,391 147.5,350.5Q126,310 126,246Q126,182 147.5,141.5Q169,101 203,81.5Q237,62 274,62Z"/><path transform="translate(232.15 243.26) scale(0.015 -0.015)" d="M72,0L72,496L134,496L156,421Q170,445 191.5,463.5Q213,482 243.5,493Q274,504 316,504Q376,504 412,480Q448,456 464,413.5Q480,371 480,314L480,0L396,0L396,289Q396,327 389,359.5Q382,392 358.5,412Q335,432 287,432Q226,432 191,390.5Q156,349 156,269L156,0L72,0Z"/><path transform="translate(240.40 243.26) scale(0.015 -0.015)" d="M272,-192Q232,-192 192,-180.5Q152,-169 121.5,-143Q91,-117 78,-76L160,-51Q171,-84 202.5,-101.5Q234,-119 278,-119Q315,-119 343,-106.5Q371,-94 387.5,-66Q404,-38 404,9L404,94Q381,55 343,32Q305,9 246,9Q191,9 143,37.5Q95,66 65.5,121.5Q36,177 36,256Q36,336 65.5,391Q95,446 143,475Q191,504 246,504Q305,504 343,480.5Q381,457 404,418L427,496L488,496L488,8Q488,-58 461,-102.5Q434,-147 385.5,-169.5Q337,-192 272,-192ZM267,79Q305,79 336.5,97Q368,115 387.5,154Q407,193 407,256Q407,319 387.5,358Q368,397 336.5,414.5Q305,432 267,432Q206,432 166.5,386.5Q127,341 127,256Q127,171 166.5,125Q206,79 267,79Z"/><path transform="translate(248.77 243.26) scale(0.015 -0.015)" d="M221,0Q174,0 148.5,9.5Q123,19 113.5,46Q104,73 104,124L104,429L20,429L20,496L104,496L104,620L188,620L188,496L291,496L291,429L188,429L188,138Q188,96 197.5,85Q207,74 239,74L291,74L291,0L221,0Z"/><path transform="translate(253.66 243.26) scale(0.015 -0.015)" d="M279,-12Q201,-12 147,22.5Q93,57 64.5,115.5Q36,174 36,247Q36,326 68,383.5Q100,441 154.5,472.5Q209,504 277,504Q336,504 381,480.5Q426,457 455.5,417.5Q485,378 498.5,328Q512,278 508,225L124,225Q128,176 144.5,144Q161,112 184,94Q207,76 232.5,69Q258,62 279,62Q321,62 349.5,75.5Q378,89 395,111L476,87Q449,44 399,16Q349,-12 279,-12ZM125,292L419,292Q419,327 401.5,359Q384,391 352.5,411.5Q321,432 277,432Q244,432 211.5,419Q179,406 155.5,375.5Q132,345 125,292Z"/><path transform="translate(261.73 243.26) scale(0.015 -0.015)" d="M72,0L72,496L134,496L156,421Q170,445 190.5,463.5Q211,482 239.5,493Q268,504 305,504Q362,504 397,481Q432,458 448,417Q478,463 520.5,483.5Q563,504 615,504Q673,504 708,480Q743,456 759,413.5Q775,371 775,314L775,0L691,0L691,289Q691,327 683.5,359.5Q676,392 653.5,412Q631,432 585,432Q531,432 498.5,390.5Q466,349 466,269L466,0L382,0L382,289Q382,327 374.5,359.5Q367,392 344.5,412Q322,432 276,432Q240,432 213,413.5Q186,395 171,358.5Q156,322 156,269L156,0L72,0Z"/><path transform="translate(274.40 243.26) scale(0.015 -0.015)" d="M72,-162L72,496L133,496L156,418Q171,444 194,463.5Q217,483 247.5,493.5Q278,504 317,504Q374,504 422.5,473.5Q471,443 500.5,385.5Q530,328 530,246Q530,165 500.5,107Q471,49 422.5,18.5Q374,-12 317,-12Q278,-12 247.5,-1.5Q217,9 194,29Q171,49 156,75L156,-162L72,-162ZM295,60Q359,60 397.5,109Q436,158 436,246Q436,335 397.5,383.5Q359,432 295,432Q231,432 192.5,383.5Q154,335 154,246Q154,158 192.5,109Q231,60 295,60Z"/><path transform="translate(282.89 243.26) scale(0.015 -0.015)" d="M239,-12Q196,-12 154.5,1.5Q113,15 80.5,42.5Q48,70 31,112L112,142Q123,101 161,80Q199,59 240,59Q289,59 323,80Q357,101 357,136Q357,168 331,185Q305,202 250,214L192,227Q150,237 116.5,253Q83,269 63.5,296Q44,323 44,366Q44,409 70,440.5Q96,472 139.5,489Q183,506 235,506Q297,506 350,480.5Q403,455 426,402L347,373Q334,404 300.5,419.5Q267,435 229,435Q187,435 157.5,417.5Q128,400 128,368Q128,341 149,326.5Q170,312 213,302L271,289Q323,278 361,261Q399,244 420,215.5Q441,187 441,140Q441,95 414,60.5Q387,26 341.5,7Q296,-12 239,-12Z"/></g></svg>
