<svg xmlns="http://www.w3.org/2000/svg" viewBox="0 -140 426.667 160" width="426.667" height="160"><style>.fe{fill:#2A1F1A}.se{stroke:#2A1F1A}.fi{fill:#FEFAF2}.si{stroke:#FEFAF2}.sa{stroke:#5E7488}.so{stroke:#B54E19}.fa{fill:#F2A33A}.fd{fill:#D9D4CC}.fs{fill:#5E7488}</style><line class="se" x1="0" y1="0" x2="426.667" y2="0" stroke-width="1.5"/><g class="board"><line class="se" x1="167" y1="-46" x2="158" y2="-1" stroke-width="4" stroke-linecap="round"/><line class="se" x1="283" y1="-46" x2="292" y2="-1" stroke-width="4" stroke-linecap="round"/><rect class="fi se" x="147" y="-130" width="156" height="84" rx="1.5" stroke-width="2.5"/><line class="sa" x1="186" y1="-125" x2="186" y2="-51" stroke-width="1.2"/><line class="sa" x1="225" y1="-125" x2="225" y2="-51" stroke-width="1.2"/><line class="sa" x1="264" y1="-125" x2="264" y2="-51" stroke-width="1.2"/></g><g class="postit c1"><rect class="fi se" x="160" y="-123" width="13" height="13" rx="1" stroke-width="1.5"/></g><g class="postit c1"><rect class="fi se" x="160" y="-104" width="13" height="13" rx="1" stroke-width="1.5"/></g><g class="postit c1"><rect class="fi se" x="160" y="-85" width="13" height="13" rx="1" stroke-width="1.5"/></g><g class="postit c1"><rect class="fi se" x="160" y="-66" width="13" height="13" rx="1" stroke-width="1.5"/></g><g class="postit c2"><rect class="fi se" x="199" y="-123" width="13" height="13" rx="1" stroke-width="1.5"/></g><g class="postit c2"><rect class="fi se" x="199" y="-104" width="13" height="13" rx="1" stroke-width="1.5"/></g><g class="postit c2"><rect class="fi se" x="199" y="-85" width="13" height="13" rx="1" stroke-width="1.5"/></g><g class="postit c2"><rect class="fi se" x="199" y="-66" width="13" height="13" rx="1" stroke-width="1.5"/></g><g class="postit c3"><rect class="fi se" x="238" y="-123" width="13" height="13" rx="1" stroke-width="1.5"/></g><g class="postit c3"><rect class="fi se" x="238" y="-104" width="13" height="13" rx="1" stroke-width="1.5"/></g><g class="postit c4"><rect class="fa se" x="277" y="-82" width="13" height="13" rx="1" stroke-width="1.5"/><path class="se" d="M278.9,-76.5 a3.6,2.6 0 1 1 2.2,2.4 l-2.4,1.8 l0.6,-2.6 Z" fill="none" stroke-width="1.1" stroke-linejoin="round"/></g><g transform="translate(114 0)"><g class="pm-montre"><polyline class="se" points="-5.25,-56 -4.5,-4 0.5,-4" fill="none" stroke-linecap="round" stroke-linejoin="round" stroke-width="7.5"/><polyline class="se" points="5.25,-56 4.5,-4 9.5,-4" fill="none" stroke-linecap="round" stroke-linejoin="round" stroke-width="7.5"/><polyline class="se" points="0,-89 -2,-58" fill="none" stroke-linecap="round" stroke-linejoin="round" stroke-width="7"/><path class="fe" d="M-9,-88 A9,9 0 0 1 9,-88 L9,-55 Q9,-52 6,-52 L-6,-52 Q-9,-52 -9,-55 Z"/><circle class="fe" cx="1" cy="-110" r="10"/><polyline class="si" points="1,-89 32,-80.3" fill="none" stroke-linecap="round" stroke-linejoin="round" stroke-width="10"/><polyline class="se" points="1,-89 32,-80.3" fill="none" stroke-linecap="round" stroke-linejoin="round" stroke-width="7"/></g></g><g transform="translate(183 0)"><g class="j-debout"><polyline class="se" points="-5.25,-56 -4.5,-4 0.5,-4" fill="none" stroke-linecap="round" stroke-linejoin="round" stroke-width="7.5"/><polyline class="se" points="5.25,-56 4.5,-4 9.5,-4" fill="none" stroke-linecap="round" stroke-linejoin="round" stroke-width="7.5"/><polyline class="se" points="0,-89 -2,-58" fill="none" stroke-linecap="round" stroke-linejoin="round" stroke-width="7"/><path class="fe" d="M-9,-88 A9,9 0 0 1 9,-88 L9,-55 Q9,-52 6,-52 L-6,-52 Q-9,-52 -9,-55 Z"/><circle class="fe" cx="1" cy="-110" r="10"/><g class="lunettes"><line class="so" x1="5.6" y1="-111" x2="-5" y2="-109.5" stroke-width="1.6" stroke-linecap="round"/><circle class="so" cx="9" cy="-111" r="3.4" fill="none" stroke-width="1.8"/></g><polyline class="si" points="1,-89 3,-60" fill="none" stroke-linecap="round" stroke-linejoin="round" stroke-width="10"/><polyline class="se" points="1,-89 3,-60" fill="none" stroke-linecap="round" stroke-linejoin="round" stroke-width="7"/></g></g><g transform="translate(313.5 0)"><g class="d-colle" transform="scale(-1 1)"><polyline class="se" points="-5.25,-56 -4.5,-4 0.5,-4" fill="none" stroke-linecap="round" stroke-linejoin="round" stroke-width="7.5"/><polyline class="se" points="5.25,-56 4.5,-4 9.5,-4" fill="none" stroke-linecap="round" stroke-linejoin="round" stroke-width="7.5"/><polyline class="se" points="0,-89 31,-76" fill="none" stroke-linecap="round" stroke-linejoin="round" stroke-width="7"/><path class="fe" d="M-9,-88 A9,9 0 0 1 9,-88 L9,-55 Q9,-52 6,-52 L-6,-52 Q-9,-52 -9,-55 Z"/><circle class="fe" cx="1" cy="-110" r="10"/><polyline class="si" points="1,-89 29,-73" fill="none" stroke-linecap="round" stroke-linejoin="round" stroke-width="10"/><polyline class="se" points="1,-89 29,-73" fill="none" stroke-linecap="round" stroke-linejoin="round" stroke-width="7"/></g></g></svg>
